<svg xmlns="http://www.w3.org/2000/svg" width="12.9" height="11.824" viewBox="0 0 12.9 11.824">
  <path id="Path_838" data-name="Path 838" d="M480.854,652.75a3.539,3.539,0,0,0-2.535-.953,3.2,3.2,0,0,0-.777-.5,3.331,3.331,0,0,1,.814-.831l-1.075-1.074a2.424,2.424,0,0,0-1.522,1.647,3.2,3.2,0,0,0-1.729.817c-2.6.148-4.274,2.316-4.274,5.6,0,3.763,4.52,3.763,6.45,3.763,2.093,0,6.45,0,6.45-3.763A6.5,6.5,0,0,0,480.854,652.75Zm-8.948,4.7,1.075-2.149,2.705,2.149Zm4.82,0,2.7-2.149,1.075,2.149Z" transform="translate(-469.756 -649.39)" fill="#f7a324"/>
</svg>
